<svg width="400" height="300" viewBox="0 0 400 300" fill="none" xmlns="http://www.w3.org/2000/svg">
<rect width="400" height="300" fill="white"/>
<rect width="400" height="300" fill="url(#paint0_radial)"/>
<path d="M200 15L215.935 100.958L279.351 40.7827L241.717 119.691L328.393 108.283L251.565 150L328.393 191.717L241.717 180.309L279.351 259.217L215.935 199.042L200 285L184.065 199.042L120.649 259.217L158.283 180.309L71.6074 191.717L148.435 150L71.6074 108.283L158.283 119.691L120.649 40.7827L184.065 100.958L200 15Z" fill="#F2C94C"/>
<path d="M65 150L150.958 134.065L90.7827 70.649L169.691 108.283L158.283 21.6074L200 98.4346L241.717 21.6074L230.309 108.283L309.217 70.649L249.042 134.065L335 150L249.042 165.935L309.217 229.351L230.309 191.717L241.717 278.393L200 201.565L158.283 278.393L169.691 191.717L90.7827 229.351L150.958 165.935L65 150Z" fill="#C7A231"/>
<path d="M200 15L215.935 100.958L279.351 40.7827L241.717 119.691L328.393 108.283L251.565 150L328.393 191.717L241.717 180.309L279.351 259.217L215.935 199.042L200 285L184.065 199.042L120.649 259.217L158.283 180.309L71.6074 191.717L148.435 150L71.6074 108.283L158.283 119.691L120.649 40.7827L184.065 100.958L200 15Z" fill="#F2C94C"/>
<path d="M292.5 150.455C292.5 198.654 251.215 237.955 200 237.955C148.785 237.955 107.5 198.654 107.5 150.455C107.5 102.255 148.785 62.9545 200 62.9545C251.215 62.9545 292.5 102.255 292.5 150.455Z" fill="url(#paint1_radial)" stroke="#52B2F2" stroke-width="5"/>
<defs>
<radialGradient id="paint0_radial" cx="0" cy="0" r="1" gradientUnits="userSpaceOnUse" gradientTransform="translate(200 150) rotate(90) scale(250 333.333)">
<stop stop-color="#4DB0F1"/>
<stop offset="1" stop-color="#B7E2FF"/>
</radialGradient>
<radialGradient id="paint1_radial" cx="0" cy="0" r="1" gradientUnits="userSpaceOnUse" gradientTransform="translate(200 150.455) rotate(143.268) scale(263.728 278.38)">
<stop stop-color="#F2C94C"/>
<stop offset="1" stop-color="white"/>
</radialGradient>
</defs>
</svg>
