<svg width="400" height="300" viewBox="0 0 400 300" fill="none" xmlns="http://www.w3.org/2000/svg">
<rect width="400" height="300" fill="white"/>
<rect width="400" height="300" fill="url(#paint0_radial)"/>
<path d="M117.5 13L130.425 82.7218L181.862 33.9126L151.337 97.9157L221.641 88.6626L159.325 122.5L221.641 156.337L151.337 147.084L181.862 211.087L130.425 162.278L117.5 232L104.575 162.278L53.1375 211.087L83.6626 147.084L13.3593 156.337L75.6747 122.5L13.3593 88.6626L83.6626 97.9157L53.1375 33.9126L104.575 82.7218L117.5 13Z" fill="#F2C94C"/>
<path d="M8 122.5L77.7218 109.575L28.9126 58.1375L92.9157 88.6626L83.6626 18.3593L117.5 80.6747L151.337 18.3593L142.084 88.6626L206.087 58.1375L157.278 109.575L227 122.5L157.278 135.425L206.087 186.862L142.084 156.337L151.337 226.641L117.5 164.325L83.6626 226.641L92.9157 156.337L28.9126 186.862L77.7218 135.425L8 122.5Z" fill="#C7A231"/>
<path d="M117.5 13L130.425 82.7218L181.862 33.9126L151.337 97.9157L221.641 88.6626L159.325 122.5L221.641 156.337L151.337 147.084L181.862 211.087L130.425 162.278L117.5 232L104.575 162.278L53.1375 211.087L83.6626 147.084L13.3593 156.337L75.6747 122.5L13.3593 88.6626L83.6626 97.9157L53.1375 33.9126L104.575 82.7218L117.5 13Z" fill="#F2C94C"/>
<path d="M192.056 122.869C192.056 161.679 158.805 193.369 117.5 193.369C76.195 193.369 42.9445 161.679 42.9445 122.869C42.9445 84.0582 76.195 52.3687 117.5 52.3687C158.805 52.3687 192.056 84.0582 192.056 122.869Z" fill="url(#paint1_radial)" stroke="#52B2F2" stroke-width="5"/>
<g filter="url(#filter0_d)">
<path d="M352.973 183.349C355.439 175.315 356.77 166.756 356.77 157.874C356.77 111.552 320.576 74 275.93 74C253.984 74 234.082 83.0724 219.516 97.7994C211.799 86.5984 199.16 79.2973 184.878 79.2973C161.38 79.2973 142.331 99.0613 142.331 123.441C142.331 125.608 142.481 127.737 142.771 129.82C141.081 129.688 139.373 129.622 137.65 129.622C100.288 129.622 70 161.046 70 199.811C70 238.575 100.288 270 137.65 270C138.206 270 138.759 269.993 139.312 269.979C139.749 269.993 140.188 270 140.629 270H341.453C364.951 270 384 250.236 384 225.856C384 205.618 370.874 188.561 352.973 183.349Z" fill="url(#paint2_linear)"/>
<path d="M351.061 182.762L350.466 184.702L352.414 185.269C369.443 190.227 382 206.488 382 225.856C382 249.202 363.777 268 341.453 268H140.629C140.209 268 139.791 267.993 139.375 267.98L139.318 267.978L139.262 267.98C138.726 267.993 138.189 268 137.65 268C101.461 268 72 237.541 72 199.811C72 162.081 101.461 131.622 137.65 131.622C139.321 131.622 140.978 131.686 142.617 131.814L145.096 132.006L144.752 129.543C144.475 127.552 144.331 125.515 144.331 123.441C144.331 100.096 162.553 81.2973 184.878 81.2973C198.455 81.2973 210.497 88.2349 217.869 98.9341L219.239 100.923L220.937 99.2058C235.151 84.8352 254.551 76 275.93 76C319.403 76 354.77 112.586 354.77 157.874C354.77 166.555 353.469 174.917 351.061 182.762Z" stroke="black" stroke-width="4"/>
</g>
<defs>
<filter id="filter0_d" x="66" y="74" width="322" height="204" filterUnits="userSpaceOnUse" color-interpolation-filters="sRGB">
<feFlood flood-opacity="0" result="BackgroundImageFix"/>
<feColorMatrix in="SourceAlpha" type="matrix" values="0 0 0 0 0 0 0 0 0 0 0 0 0 0 0 0 0 0 127 0"/>
<feOffset dy="4"/>
<feGaussianBlur stdDeviation="2"/>
<feColorMatrix type="matrix" values="0 0 0 0 0 0 0 0 0 0 0 0 0 0 0 0 0 0 0.25 0"/>
<feBlend mode="normal" in2="BackgroundImageFix" result="effect1_dropShadow"/>
<feBlend mode="normal" in="SourceGraphic" in2="effect1_dropShadow" result="shape"/>
</filter>
<radialGradient id="paint0_radial" cx="0" cy="0" r="1" gradientUnits="userSpaceOnUse" gradientTransform="translate(200 150) rotate(90) scale(250 333.333)">
<stop stop-color="#4DB0F1"/>
<stop offset="1" stop-color="#B7E2FF"/>
</radialGradient>
<radialGradient id="paint1_radial" cx="0" cy="0" r="1" gradientUnits="userSpaceOnUse" gradientTransform="translate(117.5 122.869) rotate(143.268) scale(213.913 225.797)">
<stop stop-color="#F2C94C"/>
<stop offset="1" stop-color="white"/>
</radialGradient>
<linearGradient id="paint2_linear" x1="226.575" y1="87.2432" x2="227.033" y2="270" gradientUnits="userSpaceOnUse">
<stop stop-color="white"/>
<stop offset="0.758907" stop-color="#E6E1E1"/>
<stop offset="1" stop-color="#333333"/>
</linearGradient>
</defs>
</svg>
