<svg width="50" height="79" viewBox="0 0 50 79" fill="none" xmlns="http://www.w3.org/2000/svg">
<path fill-rule="evenodd" clip-rule="evenodd" d="M32.7875 67.0409C34.7397 67.4084 36.4618 67.9027 37.8799 68.4782C39.4451 69.1134 40.4457 69.769 40.9912 70.2923C41.1422 70.4372 41.2378 70.5503 41.2971 70.6315C41.2378 70.7128 41.1422 70.8259 40.9912 70.9708C40.4457 71.4941 39.4451 72.1497 37.8799 72.7848C34.77 74.0468 30.1983 74.9185 24.9438 74.9185C19.6892 74.9185 15.1176 74.0468 12.0077 72.7848C10.4425 72.1497 9.44184 71.4941 8.8964 70.9708C8.74536 70.8259 8.6498 70.7128 8.59043 70.6315C8.6498 70.5503 8.74536 70.4372 8.8964 70.2923C9.44184 69.769 10.4425 69.1134 12.0077 68.4782C13.4258 67.9027 15.1479 67.4084 17.1002 67.0409L14.8979 63.4149C8.70315 64.838 4.52234 67.5366 4.52234 70.6315C4.52234 75.2083 13.6653 78.9185 24.9438 78.9185C36.2222 78.9185 45.3652 75.2083 45.3652 70.6315C45.3652 67.5367 41.1845 64.838 34.9897 63.4149L32.7875 67.0409ZM41.3878 70.4765C41.3885 70.4765 41.3865 70.4838 41.3798 70.4983C41.3837 70.4838 41.3871 70.4765 41.3878 70.4765ZM8.49982 70.4765C8.50051 70.4765 8.50386 70.4838 8.50777 70.4983C8.50108 70.4838 8.49912 70.4765 8.49982 70.4765ZM8.49982 70.7865C8.49912 70.7865 8.50108 70.7792 8.50777 70.7647C8.50386 70.7793 8.50051 70.7865 8.49982 70.7865ZM41.3798 70.7647C41.3865 70.7792 41.3885 70.7865 41.3878 70.7865C41.3871 70.7865 41.3837 70.7792 41.3798 70.7647Z" fill="#FC440F"/>
<path fill-rule="evenodd" clip-rule="evenodd" d="M49.8192 25.3625C49.8192 30.0979 48.496 34.5242 46.1993 38.2919L24.9437 73.5713L4.65329 39.7563C1.766 35.6935 0.0683594 30.7263 0.0683594 25.3625C0.0683594 11.6242 11.2055 0.487061 24.9438 0.487061C38.6821 0.487061 49.8192 11.6242 49.8192 25.3625ZM24.9438 37.6831C31.7574 37.6831 37.281 32.1595 37.281 25.3459C37.281 18.5322 31.7574 13.0087 24.9438 13.0087C18.1301 13.0087 12.6066 18.5322 12.6066 25.3459C12.6066 32.1595 18.1301 37.6831 24.9438 37.6831Z" fill="#FC440F"/>
</svg>
