<svg width="400" height="300" viewBox="0 0 400 300" fill="none" xmlns="http://www.w3.org/2000/svg">
<rect width="400" height="300" fill="white"/>
<rect width="400" height="300" fill="url(#paint0_radial)"/>
<g filter="url(#filter0_d)">
<path d="M184.989 201.812L184.989 210.016" stroke="white" stroke-linecap="round" stroke-linejoin="round"/>
<path d="M184.989 206.031L187.83 203.892" stroke="white" stroke-linecap="round" stroke-linejoin="round"/>
<path d="M185.011 206.031L182.17 203.892" stroke="white" stroke-linecap="round" stroke-linejoin="round"/>
<path d="M184.185 201.4L185.05 199.967L185.915 201.4H184.185Z" stroke="white" stroke-linecap="round" stroke-linejoin="round"/>
<line x1="183.528" y1="207.641" x2="186.572" y2="207.641" stroke="white" stroke-linecap="round"/>
<path d="M184.989 226.188L184.989 217.984" stroke="white" stroke-linecap="round" stroke-linejoin="round"/>
<path d="M184.989 221.969L187.83 224.108" stroke="white" stroke-linecap="round" stroke-linejoin="round"/>
<path d="M185.011 221.969L182.17 224.108" stroke="white" stroke-linecap="round" stroke-linejoin="round"/>
<path d="M184.185 226.6L185.05 228.033L185.915 226.6H184.185Z" stroke="white" stroke-linecap="round" stroke-linejoin="round"/>
<line x1="0.5" y1="-0.5" x2="3.54421" y2="-0.5" transform="matrix(1 0 0 -1 183.028 219.859)" stroke="white" stroke-linecap="round"/>
<path d="M196.032 207.897L188.603 211.999" stroke="white" stroke-linecap="round" stroke-linejoin="round"/>
<path d="M192.21 210.006L195.571 211.289" stroke="white" stroke-linecap="round" stroke-linejoin="round"/>
<path d="M192.229 210.025L192.734 206.602" stroke="white" stroke-linecap="round" stroke-linejoin="round"/>
<path d="M195.99 207.02L197.717 207.038L196.87 208.467L195.99 207.02Z" stroke="white" stroke-linecap="round" stroke-linejoin="round"/>
<line x1="0.5" y1="-0.5" x2="3.41224" y2="-0.5" transform="matrix(0.516867 0.856053 -0.875437 0.48331 189.321 209.437)" stroke="white" stroke-linecap="round"/>
<path d="M173.956 220.085L181.386 215.983" stroke="white" stroke-linecap="round" stroke-linejoin="round"/>
<path d="M177.771 217.975L177.266 221.398" stroke="white" stroke-linecap="round" stroke-linejoin="round"/>
<path d="M177.79 217.994L174.429 216.711" stroke="white" stroke-linecap="round" stroke-linejoin="round"/>
<path d="M173.18 219.616L172.333 221.045L174.06 221.063L173.18 219.616Z" stroke="white" stroke-linecap="round" stroke-linejoin="round"/>
<line x1="0.5" y1="-0.5" x2="3.41223" y2="-0.5" transform="matrix(0.516867 0.856053 0.875438 -0.48331 178.707 215.297)" stroke="white" stroke-linecap="round"/>
<path d="M173.957 207.915L181.386 212.017" stroke="white" stroke-linecap="round" stroke-linejoin="round"/>
<path d="M177.771 210.025L177.266 206.602" stroke="white" stroke-linecap="round" stroke-linejoin="round"/>
<path d="M177.79 210.006L174.429 211.289" stroke="white" stroke-linecap="round" stroke-linejoin="round"/>
<path d="M173.18 208.384L172.334 206.955L174.06 206.937L173.18 208.384Z" stroke="white" stroke-linecap="round" stroke-linejoin="round"/>
<line x1="0.5" y1="-0.5" x2="3.41224" y2="-0.5" transform="matrix(0.516867 -0.856053 0.875437 0.48331 178.707 212.703)" stroke="white" stroke-linecap="round"/>
<path d="M196.032 220.103L188.603 216.001" stroke="white" stroke-linecap="round" stroke-linejoin="round"/>
<path d="M192.21 217.994L195.571 216.711" stroke="white" stroke-linecap="round" stroke-linejoin="round"/>
<path d="M192.229 217.975L192.734 221.398" stroke="white" stroke-linecap="round" stroke-linejoin="round"/>
<path d="M195.99 220.98L197.717 220.962L196.87 219.533L195.99 220.98Z" stroke="white" stroke-linecap="round" stroke-linejoin="round"/>
<line x1="0.5" y1="-0.5" x2="3.41223" y2="-0.5" transform="matrix(0.516867 -0.856053 -0.875438 -0.48331 189.321 218.563)" stroke="white" stroke-linecap="round"/>
<path d="M181.668 212.186L184.989 210.352L188.31 212.186V215.814L184.989 217.648L181.668 215.814V212.186Z" stroke="white"/>
</g>
<g filter="url(#filter1_d)">
<path d="M297.989 241.812L297.989 250.016" stroke="white" stroke-linecap="round" stroke-linejoin="round"/>
<path d="M297.989 246.031L300.83 243.892" stroke="white" stroke-linecap="round" stroke-linejoin="round"/>
<path d="M298.011 246.031L295.17 243.892" stroke="white" stroke-linecap="round" stroke-linejoin="round"/>
<path d="M297.185 241.4L298.05 239.967L298.915 241.4H297.185Z" stroke="white" stroke-linecap="round" stroke-linejoin="round"/>
<line x1="296.528" y1="247.641" x2="299.572" y2="247.641" stroke="white" stroke-linecap="round"/>
<path d="M297.989 266.188L297.989 257.984" stroke="white" stroke-linecap="round" stroke-linejoin="round"/>
<path d="M297.989 261.969L300.83 264.108" stroke="white" stroke-linecap="round" stroke-linejoin="round"/>
<path d="M298.011 261.969L295.17 264.108" stroke="white" stroke-linecap="round" stroke-linejoin="round"/>
<path d="M297.185 266.6L298.05 268.033L298.915 266.6H297.185Z" stroke="white" stroke-linecap="round" stroke-linejoin="round"/>
<line x1="0.5" y1="-0.5" x2="3.54421" y2="-0.5" transform="matrix(1 0 0 -1 296.028 259.859)" stroke="white" stroke-linecap="round"/>
<path d="M309.032 247.897L301.603 251.999" stroke="white" stroke-linecap="round" stroke-linejoin="round"/>
<path d="M305.21 250.006L308.571 251.289" stroke="white" stroke-linecap="round" stroke-linejoin="round"/>
<path d="M305.229 250.025L305.734 246.602" stroke="white" stroke-linecap="round" stroke-linejoin="round"/>
<path d="M308.99 247.02L310.717 247.038L309.87 248.467L308.99 247.02Z" stroke="white" stroke-linecap="round" stroke-linejoin="round"/>
<line x1="0.5" y1="-0.5" x2="3.41224" y2="-0.5" transform="matrix(0.516867 0.856053 -0.875437 0.48331 302.321 249.437)" stroke="white" stroke-linecap="round"/>
<path d="M286.956 260.085L294.386 255.983" stroke="white" stroke-linecap="round" stroke-linejoin="round"/>
<path d="M290.771 257.975L290.266 261.398" stroke="white" stroke-linecap="round" stroke-linejoin="round"/>
<path d="M290.79 257.994L287.429 256.711" stroke="white" stroke-linecap="round" stroke-linejoin="round"/>
<path d="M286.18 259.616L285.333 261.045L287.06 261.063L286.18 259.616Z" stroke="white" stroke-linecap="round" stroke-linejoin="round"/>
<line x1="0.5" y1="-0.5" x2="3.41223" y2="-0.5" transform="matrix(0.516867 0.856053 0.875438 -0.48331 291.707 255.297)" stroke="white" stroke-linecap="round"/>
<path d="M286.957 247.915L294.386 252.017" stroke="white" stroke-linecap="round" stroke-linejoin="round"/>
<path d="M290.771 250.025L290.266 246.602" stroke="white" stroke-linecap="round" stroke-linejoin="round"/>
<path d="M290.79 250.006L287.429 251.289" stroke="white" stroke-linecap="round" stroke-linejoin="round"/>
<path d="M286.18 248.384L285.334 246.955L287.06 246.937L286.18 248.384Z" stroke="white" stroke-linecap="round" stroke-linejoin="round"/>
<line x1="0.5" y1="-0.5" x2="3.41224" y2="-0.5" transform="matrix(0.516867 -0.856053 0.875437 0.48331 291.707 252.703)" stroke="white" stroke-linecap="round"/>
<path d="M309.032 260.103L301.603 256.001" stroke="white" stroke-linecap="round" stroke-linejoin="round"/>
<path d="M305.21 257.994L308.571 256.711" stroke="white" stroke-linecap="round" stroke-linejoin="round"/>
<path d="M305.229 257.975L305.734 261.398" stroke="white" stroke-linecap="round" stroke-linejoin="round"/>
<path d="M308.99 260.98L310.717 260.962L309.87 259.533L308.99 260.98Z" stroke="white" stroke-linecap="round" stroke-linejoin="round"/>
<line x1="0.5" y1="-0.5" x2="3.41223" y2="-0.5" transform="matrix(0.516867 -0.856053 -0.875438 -0.48331 302.321 258.563)" stroke="white" stroke-linecap="round"/>
<path d="M294.668 252.186L297.989 250.352L301.31 252.186V255.814L297.989 257.648L294.668 255.814V252.186Z" stroke="white"/>
</g>
<g filter="url(#filter2_d)">
<path d="M100.989 210.812L100.989 219.016" stroke="white" stroke-linecap="round" stroke-linejoin="round"/>
<path d="M100.989 215.031L103.83 212.892" stroke="white" stroke-linecap="round" stroke-linejoin="round"/>
<path d="M101.011 215.031L98.17 212.892" stroke="white" stroke-linecap="round" stroke-linejoin="round"/>
<path d="M100.185 210.4L101.05 208.967L101.915 210.4H100.185Z" stroke="white" stroke-linecap="round" stroke-linejoin="round"/>
<line x1="99.5279" y1="216.641" x2="102.572" y2="216.641" stroke="white" stroke-linecap="round"/>
<path d="M100.989 235.188L100.989 226.984" stroke="white" stroke-linecap="round" stroke-linejoin="round"/>
<path d="M100.989 230.969L103.83 233.108" stroke="white" stroke-linecap="round" stroke-linejoin="round"/>
<path d="M101.011 230.969L98.17 233.108" stroke="white" stroke-linecap="round" stroke-linejoin="round"/>
<path d="M100.185 235.6L101.05 237.033L101.915 235.6H100.185Z" stroke="white" stroke-linecap="round" stroke-linejoin="round"/>
<line x1="0.5" y1="-0.5" x2="3.54421" y2="-0.5" transform="matrix(1 0 0 -1 99.0279 228.859)" stroke="white" stroke-linecap="round"/>
<path d="M112.032 216.897L104.603 220.999" stroke="white" stroke-linecap="round" stroke-linejoin="round"/>
<path d="M108.21 219.006L111.571 220.289" stroke="white" stroke-linecap="round" stroke-linejoin="round"/>
<path d="M108.229 219.025L108.734 215.602" stroke="white" stroke-linecap="round" stroke-linejoin="round"/>
<path d="M111.99 216.02L113.716 216.038L112.87 217.467L111.99 216.02Z" stroke="white" stroke-linecap="round" stroke-linejoin="round"/>
<line x1="0.5" y1="-0.5" x2="3.41224" y2="-0.5" transform="matrix(0.516867 0.856053 -0.875437 0.48331 105.321 218.437)" stroke="white" stroke-linecap="round"/>
<path d="M89.9565 229.085L97.3859 224.983" stroke="white" stroke-linecap="round" stroke-linejoin="round"/>
<path d="M93.7713 226.975L93.2663 230.398" stroke="white" stroke-linecap="round" stroke-linejoin="round"/>
<path d="M93.7897 226.994L90.4292 225.711" stroke="white" stroke-linecap="round" stroke-linejoin="round"/>
<path d="M89.1802 228.616L88.3335 230.045L90.06 230.063L89.1802 228.616Z" stroke="white" stroke-linecap="round" stroke-linejoin="round"/>
<line x1="0.5" y1="-0.5" x2="3.41223" y2="-0.5" transform="matrix(0.516867 0.856053 0.875438 -0.48331 94.7073 224.297)" stroke="white" stroke-linecap="round"/>
<path d="M89.9565 216.915L97.3859 221.017" stroke="white" stroke-linecap="round" stroke-linejoin="round"/>
<path d="M93.7713 219.025L93.2663 215.602" stroke="white" stroke-linecap="round" stroke-linejoin="round"/>
<path d="M93.7897 219.006L90.4292 220.289" stroke="white" stroke-linecap="round" stroke-linejoin="round"/>
<path d="M89.1802 217.384L88.3335 215.955L90.06 215.937L89.1802 217.384Z" stroke="white" stroke-linecap="round" stroke-linejoin="round"/>
<line x1="0.5" y1="-0.5" x2="3.41224" y2="-0.5" transform="matrix(0.516867 -0.856053 0.875437 0.48331 94.7073 221.703)" stroke="white" stroke-linecap="round"/>
<path d="M112.032 229.103L104.603 225.001" stroke="white" stroke-linecap="round" stroke-linejoin="round"/>
<path d="M108.21 226.994L111.571 225.711" stroke="white" stroke-linecap="round" stroke-linejoin="round"/>
<path d="M108.229 226.975L108.734 230.398" stroke="white" stroke-linecap="round" stroke-linejoin="round"/>
<path d="M111.99 229.98L113.716 229.962L112.87 228.533L111.99 229.98Z" stroke="white" stroke-linecap="round" stroke-linejoin="round"/>
<line x1="0.5" y1="-0.5" x2="3.41223" y2="-0.5" transform="matrix(0.516867 -0.856053 -0.875438 -0.48331 105.321 227.563)" stroke="white" stroke-linecap="round"/>
<path d="M97.668 221.186L100.989 219.352L104.31 221.186V224.814L100.989 226.648L97.668 224.814V221.186Z" stroke="white"/>
</g>
<g filter="url(#filter3_d)">
<path d="M217.989 253.812L217.989 262.016" stroke="white" stroke-linecap="round" stroke-linejoin="round"/>
<path d="M217.989 258.031L220.83 255.892" stroke="white" stroke-linecap="round" stroke-linejoin="round"/>
<path d="M218.011 258.031L215.17 255.892" stroke="white" stroke-linecap="round" stroke-linejoin="round"/>
<path d="M217.185 253.4L218.05 251.967L218.915 253.4H217.185Z" stroke="white" stroke-linecap="round" stroke-linejoin="round"/>
<line x1="216.528" y1="259.641" x2="219.572" y2="259.641" stroke="white" stroke-linecap="round"/>
<path d="M217.989 278.188L217.989 269.984" stroke="white" stroke-linecap="round" stroke-linejoin="round"/>
<path d="M217.989 273.969L220.83 276.108" stroke="white" stroke-linecap="round" stroke-linejoin="round"/>
<path d="M218.011 273.969L215.17 276.108" stroke="white" stroke-linecap="round" stroke-linejoin="round"/>
<path d="M217.185 278.6L218.05 280.033L218.915 278.6H217.185Z" stroke="white" stroke-linecap="round" stroke-linejoin="round"/>
<line x1="0.5" y1="-0.5" x2="3.54421" y2="-0.5" transform="matrix(1 0 0 -1 216.028 271.859)" stroke="white" stroke-linecap="round"/>
<path d="M229.032 259.897L221.603 263.999" stroke="white" stroke-linecap="round" stroke-linejoin="round"/>
<path d="M225.21 262.006L228.571 263.289" stroke="white" stroke-linecap="round" stroke-linejoin="round"/>
<path d="M225.229 262.025L225.734 258.602" stroke="white" stroke-linecap="round" stroke-linejoin="round"/>
<path d="M228.99 259.02L230.717 259.038L229.87 260.467L228.99 259.02Z" stroke="white" stroke-linecap="round" stroke-linejoin="round"/>
<line x1="0.5" y1="-0.5" x2="3.41224" y2="-0.5" transform="matrix(0.516867 0.856053 -0.875437 0.48331 222.321 261.437)" stroke="white" stroke-linecap="round"/>
<path d="M206.956 272.085L214.386 267.983" stroke="white" stroke-linecap="round" stroke-linejoin="round"/>
<path d="M210.771 269.975L210.266 273.398" stroke="white" stroke-linecap="round" stroke-linejoin="round"/>
<path d="M210.79 269.994L207.429 268.711" stroke="white" stroke-linecap="round" stroke-linejoin="round"/>
<path d="M206.18 271.616L205.333 273.045L207.06 273.063L206.18 271.616Z" stroke="white" stroke-linecap="round" stroke-linejoin="round"/>
<line x1="0.5" y1="-0.5" x2="3.41223" y2="-0.5" transform="matrix(0.516867 0.856053 0.875438 -0.48331 211.707 267.297)" stroke="white" stroke-linecap="round"/>
<path d="M206.957 259.915L214.386 264.017" stroke="white" stroke-linecap="round" stroke-linejoin="round"/>
<path d="M210.771 262.025L210.266 258.602" stroke="white" stroke-linecap="round" stroke-linejoin="round"/>
<path d="M210.79 262.006L207.429 263.289" stroke="white" stroke-linecap="round" stroke-linejoin="round"/>
<path d="M206.18 260.384L205.334 258.955L207.06 258.937L206.18 260.384Z" stroke="white" stroke-linecap="round" stroke-linejoin="round"/>
<line x1="0.5" y1="-0.5" x2="3.41224" y2="-0.5" transform="matrix(0.516867 -0.856053 0.875437 0.48331 211.707 264.703)" stroke="white" stroke-linecap="round"/>
<path d="M229.032 272.103L221.603 268.001" stroke="white" stroke-linecap="round" stroke-linejoin="round"/>
<path d="M225.21 269.994L228.571 268.71" stroke="white" stroke-linecap="round" stroke-linejoin="round"/>
<path d="M225.229 269.975L225.734 273.398" stroke="white" stroke-linecap="round" stroke-linejoin="round"/>
<path d="M228.99 272.98L230.717 272.962L229.87 271.533L228.99 272.98Z" stroke="white" stroke-linecap="round" stroke-linejoin="round"/>
<line x1="0.5" y1="-0.5" x2="3.41223" y2="-0.5" transform="matrix(0.516867 -0.856053 -0.875438 -0.48331 222.321 270.563)" stroke="white" stroke-linecap="round"/>
<path d="M214.668 264.186L217.989 262.352L221.31 264.186V267.814L217.989 269.648L214.668 267.814V264.186Z" stroke="white"/>
</g>
<g filter="url(#filter4_d)">
<path d="M143.985 242.75L143.985 253.688" stroke="white" stroke-linecap="round" stroke-linejoin="round"/>
<path d="M143.985 248.375L147.773 245.522" stroke="white" stroke-linecap="round" stroke-linejoin="round"/>
<path d="M144.015 248.375L140.227 245.522" stroke="white" stroke-linecap="round" stroke-linejoin="round"/>
<path d="M142.618 242.367L144.067 239.967L145.516 242.367H142.618Z" stroke="white" stroke-linecap="round" stroke-linejoin="round"/>
<line x1="141.871" y1="250.688" x2="146.263" y2="250.688" stroke="white" stroke-linecap="round"/>
<path d="M143.985 275.25L143.985 264.312" stroke="white" stroke-linecap="round" stroke-linejoin="round"/>
<path d="M143.985 269.625L147.773 272.478" stroke="white" stroke-linecap="round" stroke-linejoin="round"/>
<path d="M144.015 269.625L140.227 272.478" stroke="white" stroke-linecap="round" stroke-linejoin="round"/>
<path d="M142.618 275.633L144.067 278.033L145.516 275.633H142.618Z" stroke="white" stroke-linecap="round" stroke-linejoin="round"/>
<line x1="0.5" y1="-0.5" x2="4.89228" y2="-0.5" transform="matrix(1 0 0 -1 141.371 266.812)" stroke="white" stroke-linecap="round"/>
<path d="M158.71 250.863L148.804 256.331" stroke="white" stroke-linecap="round" stroke-linejoin="round"/>
<path d="M153.614 253.675L158.094 255.386" stroke="white" stroke-linecap="round" stroke-linejoin="round"/>
<path d="M153.638 253.7L154.312 249.137" stroke="white" stroke-linecap="round" stroke-linejoin="round"/>
<path d="M158.357 249.527L161.248 249.557L159.83 251.95L158.357 249.527Z" stroke="white" stroke-linecap="round" stroke-linejoin="round"/>
<line x1="0.5" y1="-0.5" x2="4.71632" y2="-0.5" transform="matrix(0.516867 0.856053 -0.875437 0.48331 149.761 252.916)" stroke="white" stroke-linecap="round"/>
<path d="M129.275 267.113L139.181 261.644" stroke="white" stroke-linecap="round" stroke-linejoin="round"/>
<path d="M134.362 264.3L133.688 268.863" stroke="white" stroke-linecap="round" stroke-linejoin="round"/>
<path d="M134.386 264.325L129.906 262.614" stroke="white" stroke-linecap="round" stroke-linejoin="round"/>
<path d="M128.237 266.161L126.819 268.554L129.71 268.584L128.237 266.161Z" stroke="white" stroke-linecap="round" stroke-linejoin="round"/>
<line x1="0.5" y1="-0.5" x2="4.71631" y2="-0.5" transform="matrix(0.516867 0.856053 0.875437 -0.48331 135.61 260.729)" stroke="white" stroke-linecap="round"/>
<path d="M129.275 250.887L139.181 256.356" stroke="white" stroke-linecap="round" stroke-linejoin="round"/>
<path d="M134.362 253.7L133.688 249.137" stroke="white" stroke-linecap="round" stroke-linejoin="round"/>
<path d="M134.386 253.675L129.906 255.386" stroke="white" stroke-linecap="round" stroke-linejoin="round"/>
<path d="M128.237 251.839L126.819 249.446L129.71 249.416L128.237 251.839Z" stroke="white" stroke-linecap="round" stroke-linejoin="round"/>
<line x1="0.5" y1="-0.5" x2="4.71632" y2="-0.5" transform="matrix(0.516867 -0.856053 0.875437 0.48331 135.61 257.271)" stroke="white" stroke-linecap="round"/>
<path d="M158.71 267.137L148.804 261.669" stroke="white" stroke-linecap="round" stroke-linejoin="round"/>
<path d="M153.614 264.325L158.094 262.614" stroke="white" stroke-linecap="round" stroke-linejoin="round"/>
<path d="M153.638 264.3L154.312 268.863" stroke="white" stroke-linecap="round" stroke-linejoin="round"/>
<path d="M158.357 268.473L161.248 268.443L159.83 266.05L158.357 268.473Z" stroke="white" stroke-linecap="round" stroke-linejoin="round"/>
<line x1="0.5" y1="-0.5" x2="4.71632" y2="-0.5" transform="matrix(0.516868 -0.856053 -0.875438 -0.483309 149.761 265.084)" stroke="white" stroke-linecap="round"/>
<path d="M139.391 256.483L143.985 253.946L148.579 256.483V261.517L143.985 264.054L139.391 261.517V256.483Z" stroke="white"/>
</g>
<g filter="url(#filter5_d)">
<path d="M247.985 209.75L247.985 220.688" stroke="white" stroke-linecap="round" stroke-linejoin="round"/>
<path d="M247.985 215.375L251.773 212.522" stroke="white" stroke-linecap="round" stroke-linejoin="round"/>
<path d="M248.015 215.375L244.227 212.522" stroke="white" stroke-linecap="round" stroke-linejoin="round"/>
<path d="M246.618 209.367L248.067 206.967L249.516 209.367H246.618Z" stroke="white" stroke-linecap="round" stroke-linejoin="round"/>
<line x1="245.871" y1="217.688" x2="250.263" y2="217.688" stroke="white" stroke-linecap="round"/>
<path d="M247.985 242.25L247.985 231.312" stroke="white" stroke-linecap="round" stroke-linejoin="round"/>
<path d="M247.985 236.625L251.773 239.478" stroke="white" stroke-linecap="round" stroke-linejoin="round"/>
<path d="M248.015 236.625L244.227 239.478" stroke="white" stroke-linecap="round" stroke-linejoin="round"/>
<path d="M246.618 242.633L248.067 245.033L249.516 242.633H246.618Z" stroke="white" stroke-linecap="round" stroke-linejoin="round"/>
<line x1="0.5" y1="-0.5" x2="4.89228" y2="-0.5" transform="matrix(1 0 0 -1 245.371 233.812)" stroke="white" stroke-linecap="round"/>
<path d="M262.71 217.863L252.804 223.331" stroke="white" stroke-linecap="round" stroke-linejoin="round"/>
<path d="M257.614 220.675L262.094 222.386" stroke="white" stroke-linecap="round" stroke-linejoin="round"/>
<path d="M257.638 220.7L258.312 216.137" stroke="white" stroke-linecap="round" stroke-linejoin="round"/>
<path d="M262.357 216.527L265.248 216.557L263.83 218.95L262.357 216.527Z" stroke="white" stroke-linecap="round" stroke-linejoin="round"/>
<line x1="0.5" y1="-0.5" x2="4.71632" y2="-0.5" transform="matrix(0.516867 0.856053 -0.875437 0.48331 253.761 219.916)" stroke="white" stroke-linecap="round"/>
<path d="M233.275 234.113L243.181 228.644" stroke="white" stroke-linecap="round" stroke-linejoin="round"/>
<path d="M238.362 231.3L237.688 235.863" stroke="white" stroke-linecap="round" stroke-linejoin="round"/>
<path d="M238.386 231.325L233.906 229.614" stroke="white" stroke-linecap="round" stroke-linejoin="round"/>
<path d="M232.237 233.161L230.819 235.554L233.71 235.584L232.237 233.161Z" stroke="white" stroke-linecap="round" stroke-linejoin="round"/>
<line x1="0.5" y1="-0.5" x2="4.71631" y2="-0.5" transform="matrix(0.516867 0.856053 0.875437 -0.48331 239.61 227.729)" stroke="white" stroke-linecap="round"/>
<path d="M233.275 217.887L243.181 223.356" stroke="white" stroke-linecap="round" stroke-linejoin="round"/>
<path d="M238.362 220.7L237.688 216.137" stroke="white" stroke-linecap="round" stroke-linejoin="round"/>
<path d="M238.386 220.675L233.906 222.386" stroke="white" stroke-linecap="round" stroke-linejoin="round"/>
<path d="M232.237 218.839L230.819 216.446L233.71 216.416L232.237 218.839Z" stroke="white" stroke-linecap="round" stroke-linejoin="round"/>
<line x1="0.5" y1="-0.5" x2="4.71632" y2="-0.5" transform="matrix(0.516867 -0.856053 0.875437 0.48331 239.61 224.271)" stroke="white" stroke-linecap="round"/>
<path d="M262.71 234.137L252.804 228.669" stroke="white" stroke-linecap="round" stroke-linejoin="round"/>
<path d="M257.614 231.325L262.094 229.614" stroke="white" stroke-linecap="round" stroke-linejoin="round"/>
<path d="M257.638 231.3L258.312 235.863" stroke="white" stroke-linecap="round" stroke-linejoin="round"/>
<path d="M262.357 235.473L265.248 235.443L263.83 233.05L262.357 235.473Z" stroke="white" stroke-linecap="round" stroke-linejoin="round"/>
<line x1="0.5" y1="-0.5" x2="4.71632" y2="-0.5" transform="matrix(0.516868 -0.856053 -0.875438 -0.483309 253.761 232.084)" stroke="white" stroke-linecap="round"/>
<path d="M243.391 223.483L247.985 220.946L252.579 223.483V228.517L247.985 231.054L243.391 228.517V223.483Z" stroke="white"/>
</g>
<g filter="url(#filter6_d)">
<path d="M338.147 117.191C340.44 109.977 341.678 102.291 341.678 94.3153C341.678 52.7198 308.02 19 266.501 19C246.094 19 227.586 27.1466 214.04 40.3709C206.864 30.3128 195.111 23.7568 181.829 23.7568C159.977 23.7568 142.263 41.504 142.263 63.3964C142.263 65.3414 142.403 67.2538 142.673 69.1238C141.101 69.0059 139.513 68.9459 137.911 68.9459C103.166 68.9459 75 97.1641 75 131.973C75 166.782 103.166 195 137.911 195C138.427 195 138.942 194.994 139.455 194.981C139.862 194.994 140.27 195 140.68 195H327.434C349.286 195 367 177.253 367 155.36C367 137.188 354.794 121.871 338.147 117.191Z" fill="url(#paint1_linear)"/>
<path d="M336.241 116.585L335.615 118.557L337.606 119.116C353.41 123.56 365 138.105 365 155.36C365 176.152 348.177 193 327.434 193H140.68C140.291 193 139.903 192.994 139.516 192.982L139.462 192.981L139.407 192.982C138.91 192.994 138.411 193 137.911 193C104.274 193 77 165.681 77 131.973C77 98.2652 104.274 70.9459 137.911 70.9459C139.463 70.9459 141.001 71.0041 142.523 71.1182L145.009 71.3046L144.652 68.8379C144.396 67.0622 144.263 65.2455 144.263 63.3964C144.263 42.6051 161.085 25.7568 181.829 25.7568C194.436 25.7568 205.594 31.9771 212.412 41.5325L213.767 43.4322L215.437 41.802C228.625 28.9273 246.637 21 266.501 21C306.912 21 339.677 53.8209 339.677 94.3153C339.677 102.083 338.473 109.565 336.241 116.585Z" stroke="black" stroke-width="4"/>
</g>
<defs>
<filter id="filter0_d" x="165" y="194" width="42" height="42" filterUnits="userSpaceOnUse" color-interpolation-filters="sRGB">
<feFlood flood-opacity="0" result="BackgroundImageFix"/>
<feColorMatrix in="SourceAlpha" type="matrix" values="0 0 0 0 0 0 0 0 0 0 0 0 0 0 0 0 0 0 127 0"/>
<feOffset dx="1" dy="1"/>
<feGaussianBlur stdDeviation="3"/>
<feColorMatrix type="matrix" values="0 0 0 0 0 0 0 0 0 0 0 0 0 0 0 0 0 0 1 0"/>
<feBlend mode="normal" in2="BackgroundImageFix" result="effect1_dropShadow"/>
<feBlend mode="normal" in="SourceGraphic" in2="effect1_dropShadow" result="shape"/>
</filter>
<filter id="filter1_d" x="278" y="234" width="42" height="42" filterUnits="userSpaceOnUse" color-interpolation-filters="sRGB">
<feFlood flood-opacity="0" result="BackgroundImageFix"/>
<feColorMatrix in="SourceAlpha" type="matrix" values="0 0 0 0 0 0 0 0 0 0 0 0 0 0 0 0 0 0 127 0"/>
<feOffset dx="1" dy="1"/>
<feGaussianBlur stdDeviation="3"/>
<feColorMatrix type="matrix" values="0 0 0 0 0 0 0 0 0 0 0 0 0 0 0 0 0 0 1 0"/>
<feBlend mode="normal" in2="BackgroundImageFix" result="effect1_dropShadow"/>
<feBlend mode="normal" in="SourceGraphic" in2="effect1_dropShadow" result="shape"/>
</filter>
<filter id="filter2_d" x="81" y="203" width="42" height="42" filterUnits="userSpaceOnUse" color-interpolation-filters="sRGB">
<feFlood flood-opacity="0" result="BackgroundImageFix"/>
<feColorMatrix in="SourceAlpha" type="matrix" values="0 0 0 0 0 0 0 0 0 0 0 0 0 0 0 0 0 0 127 0"/>
<feOffset dx="1" dy="1"/>
<feGaussianBlur stdDeviation="3"/>
<feColorMatrix type="matrix" values="0 0 0 0 0 0 0 0 0 0 0 0 0 0 0 0 0 0 1 0"/>
<feBlend mode="normal" in2="BackgroundImageFix" result="effect1_dropShadow"/>
<feBlend mode="normal" in="SourceGraphic" in2="effect1_dropShadow" result="shape"/>
</filter>
<filter id="filter3_d" x="198" y="246" width="42" height="42" filterUnits="userSpaceOnUse" color-interpolation-filters="sRGB">
<feFlood flood-opacity="0" result="BackgroundImageFix"/>
<feColorMatrix in="SourceAlpha" type="matrix" values="0 0 0 0 0 0 0 0 0 0 0 0 0 0 0 0 0 0 127 0"/>
<feOffset dx="1" dy="1"/>
<feGaussianBlur stdDeviation="3"/>
<feColorMatrix type="matrix" values="0 0 0 0 0 0 0 0 0 0 0 0 0 0 0 0 0 0 1 0"/>
<feBlend mode="normal" in2="BackgroundImageFix" result="effect1_dropShadow"/>
<feBlend mode="normal" in="SourceGraphic" in2="effect1_dropShadow" result="shape"/>
</filter>
<filter id="filter4_d" x="119" y="234" width="52" height="52" filterUnits="userSpaceOnUse" color-interpolation-filters="sRGB">
<feFlood flood-opacity="0" result="BackgroundImageFix"/>
<feColorMatrix in="SourceAlpha" type="matrix" values="0 0 0 0 0 0 0 0 0 0 0 0 0 0 0 0 0 0 127 0"/>
<feOffset dx="1" dy="1"/>
<feGaussianBlur stdDeviation="3"/>
<feColorMatrix type="matrix" values="0 0 0 0 0 0 0 0 0 0 0 0 0 0 0 0 0 0 1 0"/>
<feBlend mode="normal" in2="BackgroundImageFix" result="effect1_dropShadow"/>
<feBlend mode="normal" in="SourceGraphic" in2="effect1_dropShadow" result="shape"/>
</filter>
<filter id="filter5_d" x="223" y="201" width="52" height="52" filterUnits="userSpaceOnUse" color-interpolation-filters="sRGB">
<feFlood flood-opacity="0" result="BackgroundImageFix"/>
<feColorMatrix in="SourceAlpha" type="matrix" values="0 0 0 0 0 0 0 0 0 0 0 0 0 0 0 0 0 0 127 0"/>
<feOffset dx="1" dy="1"/>
<feGaussianBlur stdDeviation="3"/>
<feColorMatrix type="matrix" values="0 0 0 0 0 0 0 0 0 0 0 0 0 0 0 0 0 0 1 0"/>
<feBlend mode="normal" in2="BackgroundImageFix" result="effect1_dropShadow"/>
<feBlend mode="normal" in="SourceGraphic" in2="effect1_dropShadow" result="shape"/>
</filter>
<filter id="filter6_d" x="71" y="19" width="300" height="184" filterUnits="userSpaceOnUse" color-interpolation-filters="sRGB">
<feFlood flood-opacity="0" result="BackgroundImageFix"/>
<feColorMatrix in="SourceAlpha" type="matrix" values="0 0 0 0 0 0 0 0 0 0 0 0 0 0 0 0 0 0 127 0"/>
<feOffset dy="4"/>
<feGaussianBlur stdDeviation="2"/>
<feColorMatrix type="matrix" values="0 0 0 0 0 0 0 0 0 0 0 0 0 0 0 0 0 0 0.25 0"/>
<feBlend mode="normal" in2="BackgroundImageFix" result="effect1_dropShadow"/>
<feBlend mode="normal" in="SourceGraphic" in2="effect1_dropShadow" result="shape"/>
</filter>
<radialGradient id="paint0_radial" cx="0" cy="0" r="1" gradientUnits="userSpaceOnUse" gradientTransform="translate(200 150) rotate(90) scale(250 333.333)">
<stop stop-color="#4DB0F1"/>
<stop offset="1" stop-color="#B7E2FF"/>
</radialGradient>
<linearGradient id="paint1_linear" x1="220.604" y1="30.8919" x2="221.001" y2="195" gradientUnits="userSpaceOnUse">
<stop stop-color="white"/>
<stop offset="0.758907" stop-color="#E6E1E1"/>
<stop offset="1" stop-color="#333333"/>
</linearGradient>
</defs>
</svg>
