<svg width="270" height="270" viewBox="0 0 270 270" fill="none" xmlns="http://www.w3.org/2000/svg">
<path d="M135 0L150.935 85.9584L214.351 25.7827L176.717 104.691L263.393 93.2827L186.565 135L263.393 176.717L176.717 165.309L214.351 244.217L150.935 184.042L135 270L119.065 184.042L55.649 244.217L93.2827 165.309L6.60738 176.717L83.4346 135L6.60738 93.2827L93.2827 104.691L55.649 25.7827L119.065 85.9584L135 0Z" fill="#F2C94C"/>
<path d="M0 135L85.9584 119.065L25.7827 55.649L104.691 93.2827L93.2827 6.60736L135 83.4346L176.717 6.60736L165.309 93.2827L244.217 55.649L184.042 119.065L270 135L184.042 150.935L244.217 214.351L165.309 176.717L176.717 263.393L135 186.565L93.2827 263.393L104.691 176.717L25.7827 214.351L85.9584 150.935L0 135Z" fill="#C7A231"/>
<path d="M135 0L150.935 85.9584L214.351 25.7827L176.717 104.691L263.393 93.2827L186.565 135L263.393 176.717L176.717 165.309L214.351 244.217L150.935 184.042L135 270L119.065 184.042L55.649 244.217L93.2827 165.309L6.60738 176.717L83.4346 135L6.60738 93.2827L93.2827 104.691L55.649 25.7827L119.065 85.9584L135 0Z" fill="#F2C94C"/>
<path d="M227.5 135.455C227.5 183.654 186.215 222.955 135 222.955C83.7846 222.955 42.5 183.654 42.5 135.455C42.5 87.2553 83.7846 47.9545 135 47.9545C186.215 47.9545 227.5 87.2553 227.5 135.455Z" fill="url(#paint0_radial)" stroke="#52B2F2" stroke-width="5"/>
<defs>
<radialGradient id="paint0_radial" cx="0" cy="0" r="1" gradientUnits="userSpaceOnUse" gradientTransform="translate(135 135.455) rotate(143.268) scale(263.728 278.38)">
<stop stop-color="#F2C94C"/>
<stop offset="1" stop-color="white"/>
</radialGradient>
</defs>
</svg>
