<svg width="400" height="300" viewBox="0 0 400 300" fill="none" xmlns="http://www.w3.org/2000/svg">
<rect width="400" height="300" fill="white"/>
<rect width="400" height="300" fill="url(#paint0_radial)"/>
<g filter="url(#filter0_d)">
<path d="M334.867 106.612C337.043 99.767 338.217 92.4747 338.217 84.9076C338.217 45.4424 306.283 13.4495 266.891 13.4495C247.528 13.4495 229.968 21.1789 217.116 33.7259C210.307 24.1829 199.156 17.9626 186.555 17.9626C165.822 17.9626 149.015 34.801 149.015 55.5722C149.015 57.4176 149.148 59.232 149.404 61.0063C147.912 60.8944 146.406 60.8375 144.886 60.8375C111.92 60.8375 85.1969 87.6105 85.1969 120.637C85.1969 153.663 111.92 180.436 144.886 180.436C145.376 180.436 145.864 180.43 146.351 180.418C146.737 180.43 147.125 180.436 147.513 180.436H324.702C345.435 180.436 362.242 163.597 362.242 142.826C362.242 125.584 350.661 111.052 334.867 106.612Z" fill="url(#paint1_linear)"/>
<path d="M332.961 106.006L332.335 107.977L334.326 108.537C349.278 112.741 360.242 126.502 360.242 142.826C360.242 162.496 344.327 178.436 324.702 178.436H147.513C147.145 178.436 146.778 178.43 146.412 178.419L146.358 178.417L146.303 178.419C145.832 178.43 145.359 178.436 144.886 178.436C113.028 178.436 87.1969 152.562 87.1969 120.637C87.1969 88.7116 113.028 62.8375 144.886 62.8375C146.356 62.8375 147.813 62.8926 149.254 63.0007L151.74 63.187L151.383 60.7203C151.141 59.0405 151.015 57.3216 151.015 55.5722C151.015 35.9021 166.93 19.9626 186.555 19.9626C198.482 19.9626 209.038 25.8472 215.488 34.8875L216.843 36.7872L218.513 35.157C231.007 22.9596 248.072 15.4495 266.891 15.4495C305.175 15.4495 336.217 46.5435 336.217 84.9076C336.217 92.2667 335.075 99.3548 332.961 106.006Z" stroke="black" stroke-width="4"/>
</g>
<g filter="url(#filter1_d)">
<path d="M287.428 132.229C289.603 125.384 290.777 118.092 290.777 110.525C290.777 71.0596 258.844 39.0667 219.451 39.0667C200.089 39.0667 182.529 46.7961 169.677 59.3431C162.868 49.8002 151.717 43.5799 139.116 43.5799C118.383 43.5799 101.576 60.4182 101.576 81.1894C101.576 83.0348 101.708 84.8492 101.965 86.6235C100.473 86.5117 98.9663 86.4547 97.4462 86.4547C64.4811 86.4547 37.7576 113.228 37.7576 146.254C37.7576 179.28 64.4811 206.053 97.4462 206.053C97.9362 206.053 98.4248 206.047 98.912 206.035C99.2979 206.047 99.6853 206.053 100.074 206.053H277.263C297.996 206.053 314.803 189.215 314.803 168.444C314.803 151.202 303.222 136.67 287.428 132.229Z" fill="url(#paint2_linear)"/>
<path d="M285.522 131.623L284.895 133.595L286.887 134.154C301.839 138.358 312.803 152.119 312.803 168.444C312.803 188.114 296.888 204.053 277.263 204.053H100.074C99.7056 204.053 99.3385 204.047 98.9728 204.036L98.9182 204.035L98.8637 204.036C98.3926 204.047 97.9202 204.053 97.4462 204.053C65.5892 204.053 39.7576 178.179 39.7576 146.254C39.7576 114.329 65.5892 88.4547 97.4462 88.4547C98.9164 88.4547 100.373 88.5098 101.815 88.6179L104.3 88.8043L103.944 86.3376C103.701 84.6577 103.576 82.9389 103.576 81.1894C103.576 61.5193 119.491 45.5799 139.116 45.5799C151.042 45.5799 161.599 51.4645 168.049 60.5047L169.404 62.4044L171.074 60.7742C183.568 48.5768 200.632 41.0667 219.451 41.0667C257.736 41.0667 288.777 72.1607 288.777 110.525C288.777 117.884 287.636 124.972 285.522 131.623Z" stroke="black" stroke-width="4"/>
</g>
<g filter="url(#filter2_d)">
<mask id="path-6-inside-1" fill="white">
<path fill-rule="evenodd" clip-rule="evenodd" d="M206.749 166.551L178.24 166.551L148.614 234.579L164.1 234.579L135.78 286.551L216.78 209.959L182.852 209.959L206.749 166.551Z"/>
</mask>
<path fill-rule="evenodd" clip-rule="evenodd" d="M206.749 166.551L178.24 166.551L148.614 234.579L164.1 234.579L135.78 286.551L216.78 209.959L182.852 209.959L206.749 166.551Z" fill="url(#paint3_linear)"/>
<path d="M178.24 166.551L178.24 162.551L175.619 162.551L174.573 164.954L178.24 166.551ZM206.749 166.551L210.253 168.48L213.518 162.55L206.749 162.551L206.749 166.551ZM148.614 234.579L144.947 232.981L142.509 238.579L148.614 238.579L148.614 234.579ZM164.1 234.579L167.612 236.492L170.835 230.579L164.1 230.579L164.1 234.579ZM135.78 286.551L132.268 284.637L138.529 289.457L135.78 286.551ZM216.78 209.959L219.529 212.866L226.833 205.959L216.78 205.959L216.78 209.959ZM182.852 209.959L179.348 208.03L176.084 213.959L182.852 213.959L182.852 209.959ZM178.24 170.551L206.749 170.551L206.749 162.551L178.24 162.551L178.24 170.551ZM152.281 236.176L181.907 168.148L174.573 164.954L144.947 232.981L152.281 236.176ZM164.1 230.579L148.614 230.579L148.614 238.579L164.1 238.579L164.1 230.579ZM139.293 288.464L167.612 236.492L160.588 232.665L132.268 284.637L139.293 288.464ZM214.032 207.053L133.032 283.644L138.529 289.457L219.529 212.866L214.032 207.053ZM182.852 213.959L216.78 213.959L216.78 205.959L182.852 205.959L182.852 213.959ZM203.245 164.621L179.348 208.03L186.356 211.888L210.253 168.48L203.245 164.621Z" fill="black" mask="url(#path-6-inside-1)"/>
</g>
<defs>
<filter id="filter0_d" x="81.1969" y="13.4495" width="285.046" height="174.986" filterUnits="userSpaceOnUse" color-interpolation-filters="sRGB">
<feFlood flood-opacity="0" result="BackgroundImageFix"/>
<feColorMatrix in="SourceAlpha" type="matrix" values="0 0 0 0 0 0 0 0 0 0 0 0 0 0 0 0 0 0 127 0"/>
<feOffset dy="4"/>
<feGaussianBlur stdDeviation="2"/>
<feColorMatrix type="matrix" values="0 0 0 0 0 0 0 0 0 0 0 0 0 0 0 0 0 0 0.25 0"/>
<feBlend mode="normal" in2="BackgroundImageFix" result="effect1_dropShadow"/>
<feBlend mode="normal" in="SourceGraphic" in2="effect1_dropShadow" result="shape"/>
</filter>
<filter id="filter1_d" x="33.7576" y="39.0667" width="285.046" height="174.986" filterUnits="userSpaceOnUse" color-interpolation-filters="sRGB">
<feFlood flood-opacity="0" result="BackgroundImageFix"/>
<feColorMatrix in="SourceAlpha" type="matrix" values="0 0 0 0 0 0 0 0 0 0 0 0 0 0 0 0 0 0 127 0"/>
<feOffset dy="4"/>
<feGaussianBlur stdDeviation="2"/>
<feColorMatrix type="matrix" values="0 0 0 0 0 0 0 0 0 0 0 0 0 0 0 0 0 0 0.25 0"/>
<feBlend mode="normal" in2="BackgroundImageFix" result="effect1_dropShadow"/>
<feBlend mode="normal" in="SourceGraphic" in2="effect1_dropShadow" result="shape"/>
</filter>
<filter id="filter2_d" x="131.78" y="166.551" width="89" height="128" filterUnits="userSpaceOnUse" color-interpolation-filters="sRGB">
<feFlood flood-opacity="0" result="BackgroundImageFix"/>
<feColorMatrix in="SourceAlpha" type="matrix" values="0 0 0 0 0 0 0 0 0 0 0 0 0 0 0 0 0 0 127 0"/>
<feOffset dy="4"/>
<feGaussianBlur stdDeviation="2"/>
<feColorMatrix type="matrix" values="0 0 0 0 0 0 0 0 0 0 0 0 0 0 0 0 0 0 0.25 0"/>
<feBlend mode="normal" in2="BackgroundImageFix" result="effect1_dropShadow"/>
<feBlend mode="normal" in="SourceGraphic" in2="effect1_dropShadow" result="shape"/>
</filter>
<radialGradient id="paint0_radial" cx="0" cy="0" r="1" gradientUnits="userSpaceOnUse" gradientTransform="translate(200 150) rotate(180) scale(342.5 456.667)">
<stop stop-color="#090909"/>
<stop offset="1" stop-opacity="0.46"/>
</radialGradient>
<linearGradient id="paint1_linear" x1="223.344" y1="24.7324" x2="223.721" y2="180.436" gradientUnits="userSpaceOnUse">
<stop stop-color="#666666"/>
<stop offset="0.5625" stop-color="#333333"/>
<stop offset="1" stop-color="#222222"/>
</linearGradient>
<linearGradient id="paint2_linear" x1="175.905" y1="50.3496" x2="176.282" y2="206.053" gradientUnits="userSpaceOnUse">
<stop stop-color="white"/>
<stop offset="0.758907" stop-color="#E6E1E1"/>
<stop offset="1" stop-color="#333333"/>
</linearGradient>
<linearGradient id="paint3_linear" x1="203.163" y1="236.683" x2="159.368" y2="193.377" gradientUnits="userSpaceOnUse">
<stop stop-color="white"/>
<stop offset="0.473958" stop-color="#FFC102"/>
<stop offset="1" stop-color="#F2C94C"/>
</linearGradient>
</defs>
</svg>
